<mxfile host="app.diagrams.net" agent="Mozilla/5.0 (Windows NT 10.0; Win64; x64) AppleWebKit/537.36 (KHTML, like Gecko) Chrome/134.0.0.0 Safari/537.36 Edg/134.0.0.0" version="26.1.1">
  <diagram name="Page-1" id="-oXCEcWimoCub6Er5pQR">
    <mxGraphModel grid="1" page="1" gridSize="10" guides="1" tooltips="1" connect="1" arrows="1" fold="1" pageScale="1" pageWidth="827" pageHeight="1169" math="0" shadow="0">
      <root>
        <mxCell id="0" />
        <mxCell id="1" parent="0" />
        <mxCell id="GruzYy3vsWqs7LZmrQSV-3" value="" style="edgeStyle=orthogonalEdgeStyle;rounded=0;orthogonalLoop=1;jettySize=auto;html=1;exitX=0.5;exitY=1;exitDx=0;exitDy=0;" edge="1" parent="1" source="GruzYy3vsWqs7LZmrQSV-40" target="GruzYy3vsWqs7LZmrQSV-2">
          <mxGeometry relative="1" as="geometry">
            <mxPoint x="417.5" y="-50" as="sourcePoint" />
          </mxGeometry>
        </mxCell>
        <mxCell id="GruzYy3vsWqs7LZmrQSV-6" value="" style="edgeStyle=orthogonalEdgeStyle;rounded=0;orthogonalLoop=1;jettySize=auto;html=1;" edge="1" parent="1" source="GruzYy3vsWqs7LZmrQSV-2" target="GruzYy3vsWqs7LZmrQSV-5">
          <mxGeometry relative="1" as="geometry" />
        </mxCell>
        <mxCell id="GruzYy3vsWqs7LZmrQSV-46" value="" style="edgeStyle=orthogonalEdgeStyle;rounded=0;orthogonalLoop=1;jettySize=auto;html=1;" edge="1" parent="1" source="GruzYy3vsWqs7LZmrQSV-2" target="GruzYy3vsWqs7LZmrQSV-5">
          <mxGeometry relative="1" as="geometry" />
        </mxCell>
        <mxCell id="GruzYy3vsWqs7LZmrQSV-54" value="" style="edgeStyle=orthogonalEdgeStyle;rounded=0;orthogonalLoop=1;jettySize=auto;html=1;" edge="1" parent="1" source="GruzYy3vsWqs7LZmrQSV-2" target="GruzYy3vsWqs7LZmrQSV-53">
          <mxGeometry relative="1" as="geometry" />
        </mxCell>
        <mxCell id="GruzYy3vsWqs7LZmrQSV-2" value="Display Main Menu" style="whiteSpace=wrap;html=1;fillColor=#f8cecc;strokeColor=#b85450;fontSize=16;" vertex="1" parent="1">
          <mxGeometry x="357.5" y="20" width="120" height="60" as="geometry" />
        </mxCell>
        <mxCell id="GruzYy3vsWqs7LZmrQSV-12" value="Yes" style="edgeStyle=orthogonalEdgeStyle;rounded=0;orthogonalLoop=1;jettySize=auto;html=1;fontSize=16;" edge="1" parent="1" source="GruzYy3vsWqs7LZmrQSV-5" target="GruzYy3vsWqs7LZmrQSV-11">
          <mxGeometry relative="1" as="geometry" />
        </mxCell>
        <mxCell id="GruzYy3vsWqs7LZmrQSV-51" value="No" style="edgeStyle=orthogonalEdgeStyle;rounded=0;orthogonalLoop=1;jettySize=auto;html=1;exitX=0.5;exitY=0;exitDx=0;exitDy=0;fontSize=16;" edge="1" parent="1">
          <mxGeometry relative="1" as="geometry">
            <mxPoint x="420" y="-50" as="targetPoint" />
            <mxPoint x="643" y="-7.5" as="sourcePoint" />
            <Array as="points">
              <mxPoint x="643" y="-50" />
            </Array>
          </mxGeometry>
        </mxCell>
        <mxCell id="GruzYy3vsWqs7LZmrQSV-5" value="Click Play a Friend?" style="rhombus;whiteSpace=wrap;html=1;fillColor=#f8cecc;strokeColor=#b85450;fontSize=16;" vertex="1" parent="1">
          <mxGeometry x="580" y="-7.5" width="131" height="115" as="geometry" />
        </mxCell>
        <mxCell id="GruzYy3vsWqs7LZmrQSV-14" value="" style="edgeStyle=orthogonalEdgeStyle;rounded=0;orthogonalLoop=1;jettySize=auto;html=1;" edge="1" parent="1" source="GruzYy3vsWqs7LZmrQSV-11" target="GruzYy3vsWqs7LZmrQSV-13">
          <mxGeometry relative="1" as="geometry" />
        </mxCell>
        <mxCell id="GruzYy3vsWqs7LZmrQSV-11" value="Display the game page with the board" style="whiteSpace=wrap;html=1;fillColor=#f8cecc;strokeColor=#b85450;fontSize=16;" vertex="1" parent="1">
          <mxGeometry x="580" y="151.25" width="139" height="67.5" as="geometry" />
        </mxCell>
        <mxCell id="GruzYy3vsWqs7LZmrQSV-16" value="" style="edgeStyle=orthogonalEdgeStyle;rounded=0;orthogonalLoop=1;jettySize=auto;html=1;" edge="1" parent="1" source="GruzYy3vsWqs7LZmrQSV-13" target="GruzYy3vsWqs7LZmrQSV-15">
          <mxGeometry relative="1" as="geometry" />
        </mxCell>
        <mxCell id="GruzYy3vsWqs7LZmrQSV-13" value="Current Player places a counter" style="shape=parallelogram;perimeter=parallelogramPerimeter;whiteSpace=wrap;html=1;fixedSize=1;fillColor=#f8cecc;strokeColor=#b85450;fontSize=16;" vertex="1" parent="1">
          <mxGeometry x="805" y="150" width="150" height="70" as="geometry" />
        </mxCell>
        <mxCell id="GruzYy3vsWqs7LZmrQSV-22" value="No" style="edgeStyle=orthogonalEdgeStyle;rounded=0;orthogonalLoop=1;jettySize=auto;html=1;exitX=0;exitY=0.5;exitDx=0;exitDy=0;fontSize=16;" edge="1" parent="1" source="GruzYy3vsWqs7LZmrQSV-15">
          <mxGeometry relative="1" as="geometry">
            <mxPoint x="775" y="183.75" as="targetPoint" />
            <mxPoint x="810" y="323.75" as="sourcePoint" />
            <Array as="points">
              <mxPoint x="776" y="323.75" />
            </Array>
          </mxGeometry>
        </mxCell>
        <mxCell id="GruzYy3vsWqs7LZmrQSV-26" value="Yes" style="edgeStyle=orthogonalEdgeStyle;rounded=0;orthogonalLoop=1;jettySize=auto;html=1;fontSize=16;" edge="1" parent="1" source="GruzYy3vsWqs7LZmrQSV-15" target="GruzYy3vsWqs7LZmrQSV-25">
          <mxGeometry x="-0.005" relative="1" as="geometry">
            <mxPoint as="offset" />
          </mxGeometry>
        </mxCell>
        <mxCell id="GruzYy3vsWqs7LZmrQSV-15" value="Counter is placed?" style="rhombus;whiteSpace=wrap;html=1;fillColor=#f8cecc;strokeColor=#b85450;fontSize=16;" vertex="1" parent="1">
          <mxGeometry x="822" y="268.75" width="116" height="105" as="geometry" />
        </mxCell>
        <mxCell id="GruzYy3vsWqs7LZmrQSV-24" value="No" style="edgeStyle=orthogonalEdgeStyle;rounded=0;orthogonalLoop=1;jettySize=auto;html=1;fontSize=16;" edge="1" parent="1" source="GruzYy3vsWqs7LZmrQSV-20" target="GruzYy3vsWqs7LZmrQSV-23">
          <mxGeometry relative="1" as="geometry" />
        </mxCell>
        <mxCell id="GruzYy3vsWqs7LZmrQSV-31" value="" style="edgeStyle=orthogonalEdgeStyle;rounded=0;orthogonalLoop=1;jettySize=auto;html=1;fontSize=16;" edge="1" parent="1" source="GruzYy3vsWqs7LZmrQSV-20" target="GruzYy3vsWqs7LZmrQSV-30">
          <mxGeometry relative="1" as="geometry" />
        </mxCell>
        <mxCell id="GruzYy3vsWqs7LZmrQSV-32" value="Yes" style="edgeLabel;html=1;align=center;verticalAlign=middle;resizable=0;points=[];" connectable="0" vertex="1" parent="GruzYy3vsWqs7LZmrQSV-31">
          <mxGeometry x="-0.6143" y="3" relative="1" as="geometry">
            <mxPoint x="-3" y="9" as="offset" />
          </mxGeometry>
        </mxCell>
        <mxCell id="GruzYy3vsWqs7LZmrQSV-20" value="Has Player won?" style="rhombus;whiteSpace=wrap;html=1;fillColor=#f8cecc;strokeColor=#b85450;fontSize=16;" vertex="1" parent="1">
          <mxGeometry x="695" y="508.75" width="80" height="80" as="geometry" />
        </mxCell>
        <mxCell id="GruzYy3vsWqs7LZmrQSV-29" style="edgeStyle=orthogonalEdgeStyle;rounded=0;orthogonalLoop=1;jettySize=auto;html=1;" edge="1" parent="1" source="GruzYy3vsWqs7LZmrQSV-23">
          <mxGeometry relative="1" as="geometry">
            <mxPoint x="735" y="183.75" as="targetPoint" />
          </mxGeometry>
        </mxCell>
        <mxCell id="GruzYy3vsWqs7LZmrQSV-23" value="Update Current Player" style="whiteSpace=wrap;html=1;fillColor=#f8cecc;strokeColor=#b85450;fontSize=16;" vertex="1" parent="1">
          <mxGeometry x="675" y="353.75" width="120" height="60" as="geometry" />
        </mxCell>
        <mxCell id="GruzYy3vsWqs7LZmrQSV-27" style="edgeStyle=orthogonalEdgeStyle;rounded=0;orthogonalLoop=1;jettySize=auto;html=1;" edge="1" parent="1" source="GruzYy3vsWqs7LZmrQSV-25" target="GruzYy3vsWqs7LZmrQSV-20">
          <mxGeometry relative="1" as="geometry">
            <Array as="points">
              <mxPoint x="880" y="548.75" />
            </Array>
          </mxGeometry>
        </mxCell>
        <mxCell id="GruzYy3vsWqs7LZmrQSV-25" value="Update Board" style="whiteSpace=wrap;html=1;fillColor=#f8cecc;strokeColor=#b85450;fontSize=16;" vertex="1" parent="1">
          <mxGeometry x="818" y="438.75" width="120" height="60" as="geometry" />
        </mxCell>
        <mxCell id="GruzYy3vsWqs7LZmrQSV-44" value="" style="edgeStyle=orthogonalEdgeStyle;rounded=0;orthogonalLoop=1;jettySize=auto;html=1;" edge="1" parent="1" source="GruzYy3vsWqs7LZmrQSV-30" target="GruzYy3vsWqs7LZmrQSV-43">
          <mxGeometry relative="1" as="geometry" />
        </mxCell>
        <mxCell id="GruzYy3vsWqs7LZmrQSV-30" value="End Game and stop timer.&amp;nbsp;" style="whiteSpace=wrap;html=1;fillColor=#f8cecc;strokeColor=#b85450;fontSize=16;" vertex="1" parent="1">
          <mxGeometry x="657.87" y="648.75" width="155.25" height="60" as="geometry" />
        </mxCell>
        <mxCell id="GruzYy3vsWqs7LZmrQSV-37" value="STOP" style="rounded=1;whiteSpace=wrap;html=1;fillColor=#f8cecc;strokeColor=#b85450;fontSize=16;" vertex="1" parent="1">
          <mxGeometry x="310" y="1070" width="121" height="62.5" as="geometry" />
        </mxCell>
        <mxCell id="GruzYy3vsWqs7LZmrQSV-40" value="START" style="rounded=1;whiteSpace=wrap;html=1;fillColor=#f8cecc;strokeColor=#b85450;fontSize=16;" vertex="1" parent="1">
          <mxGeometry x="357.5" y="-170" width="120" height="60" as="geometry" />
        </mxCell>
        <mxCell id="GruzYy3vsWqs7LZmrQSV-43" value="&lt;br&gt;Display winner and update leaderboard wins and losses" style="whiteSpace=wrap;html=1;fontSize=16;fillColor=#f8cecc;strokeColor=#b85450;" vertex="1" parent="1">
          <mxGeometry x="660.24" y="768.75" width="150.51" height="80" as="geometry" />
        </mxCell>
        <mxCell id="GruzYy3vsWqs7LZmrQSV-53" value="Click Play Computer?" style="rhombus;whiteSpace=wrap;html=1;fontSize=16;fillColor=#f8cecc;strokeColor=#b85450;" vertex="1" parent="1">
          <mxGeometry x="351.25" y="150" width="132.5" height="110" as="geometry" />
        </mxCell>
      </root>
    </mxGraphModel>
  </diagram>
</mxfile>
